<svg version="1.1" xmlns="http://www.w3.org/2000/svg" viewBox="0 0 1554.999999999999 1975" width="4664.999999999997" height="5925">
  <!-- svg-source:excalidraw -->
  
  <defs>
    <style class="style-fonts">
      @font-face {
        font-family: "Virgil";
        src: url("https://excalidraw.com/Virgil.woff2");
      }
      @font-face {
        font-family: "Cascadia";
        src: url("https://excalidraw.com/Cascadia.woff2");
      }
    </style>
  </defs>
  <g stroke-linecap="round" transform="translate(613.5357142857156 193.0595238095375) rotate(0 180 155)"><path d="M32 0 M32 0 C127.22 -0.39, 224.86 0.73, 328 0 M32 0 C91.97 0, 152.19 -0.53, 328 0 M328 0 C349.32 -1.13, 361.65 9.15, 360 32 M328 0 C349.4 1.85, 359.08 9.51, 360 32 M360 32 C359.1 103.62, 361.29 176.11, 360 278 M360 32 C359.83 120.78, 359.56 208.18, 360 278 M360 278 C359.04 300.23, 349.62 310.69, 328 310 M360 278 C360.74 297.55, 349.94 312.09, 328 310 M328 310 C246.76 309.19, 165.15 309.33, 32 310 M328 310 C267.93 308.38, 207.24 308.66, 32 310 M32 310 C12.46 308.94, -0.03 300.24, 0 278 M32 310 C9.45 310.5, 1.92 301.55, 0 278 M0 278 C-0.74 195.92, -0.5 114.75, 0 32 M0 278 C-1.05 200.14, -1.7 121.69, 0 32 M0 32 C-0.25 11.16, 12.16 0.18, 32 0 M0 32 C0.45 11.57, 10.76 -0.76, 32 0" stroke="#000000" stroke-width="2" fill="none"></path></g><g transform="translate(641.5357142857156 215.0595238095375) rotate(0 57.63597869873047 22.5)"><text x="0" y="0" font-family="Virgil, Segoe UI Emoji" font-size="36px" fill="#000000" text-anchor="start" style="white-space: pre;" direction="ltr" dominant-baseline="text-before-edge">Person</text></g><g stroke-linecap="round"><g transform="translate(641.5357142857156 255.0595238095375) rotate(0 59.21257606372228 0.3361478654387611)"><path d="M-0.25 -0.65 C19.42 -0.62, 98.99 0.82, 118.68 0.76 M1.81 1.63 C21.33 1.27, 98.88 -0.66, 118.09 -0.96" stroke="#000000" stroke-width="2" fill="none"></path></g></g><mask></mask><g transform="translate(651.5357142857156 275.0595238095375) rotate(0 23.849990844726562 22.5)"><text x="0" y="0" font-family="Virgil, Segoe UI Emoji" font-size="36px" fill="#000000" text-anchor="start" style="white-space: pre;" direction="ltr" dominant-baseline="text-before-edge">ID</text></g><g transform="translate(647.685723440989 320.5595238095375) rotate(0 44.837982177734375 22.5)"><text x="0" y="0" font-family="Virgil, Segoe UI Emoji" font-size="36px" fill="#000000" text-anchor="start" style="white-space: pre;" direction="ltr" dominant-baseline="text-before-edge">Name</text></g><g transform="translate(644.6977321079812 372.5595238095375) rotate(0 44.207977294921875 22.5)"><text x="0" y="0" font-family="Virgil, Segoe UI Emoji" font-size="36px" fill="#000000" text-anchor="start" style="white-space: pre;" direction="ltr" dominant-baseline="text-before-edge">Email</text></g><g transform="translate(645.3277369907937 428.5595238095375) rotate(0 36.7559814453125 22.5)"><text x="0" y="0" font-family="Virgil, Segoe UI Emoji" font-size="36px" fill="#000000" text-anchor="start" style="white-space: pre;" direction="ltr" dominant-baseline="text-before-edge">Role</text></g><g stroke-linecap="round" transform="translate(1061.1547619047624 675.6071428571577) rotate(0 180 155)"><path d="M32 0 M32 0 C131.3 2.92, 231.64 2.42, 328 0 M32 0 C99.48 1.85, 165.63 1.19, 328 0 M328 0 C351.09 -0.01, 358.92 10.01, 360 32 M328 0 C347.84 2.16, 359.38 9.33, 360 32 M360 32 C359.51 101.26, 357.52 169.81, 360 278 M360 32 C359.04 122.32, 360.11 212.85, 360 278 M360 278 C358.45 300.87, 349.62 308.94, 328 310 M360 278 C358.75 298.54, 348.39 311.22, 328 310 M328 310 C214.08 310.43, 102.76 310.29, 32 310 M328 310 C254.22 309.81, 181.37 310.79, 32 310 M32 310 C10.93 311.48, -1.16 300.43, 0 278 M32 310 C9.95 311.17, 1.28 300.45, 0 278 M0 278 C1.44 222.03, 1.22 165.49, 0 32 M0 278 C-0.97 213.34, -1.25 148.75, 0 32 M0 32 C0.54 12.62, 8.77 1.96, 32 0 M0 32 C0.48 11.3, 11.81 1.01, 32 0" stroke="#000000" stroke-width="2" fill="none"></path></g><g transform="translate(1089.1547619047624 697.6071428571577) rotate(0 82.06196594238281 22.5)"><text x="0" y="0" font-family="Virgil, Segoe UI Emoji" font-size="36px" fill="#000000" text-anchor="start" style="white-space: pre;" direction="ltr" dominant-baseline="text-before-edge">Organizer</text></g><g stroke-linecap="round"><g transform="translate(1089.1547619047624 737.6071428571577) rotate(0 78.00143640178703 -0.5648227151395986)"><path d="M0.74 -0.19 C26.98 -0.25, 130.59 -0.75, 156.33 -0.88 M-0.33 -1.33 C25.88 -1.22, 129.23 0, 155.56 0.2" stroke="#000000" stroke-width="2" fill="none"></path></g></g><mask></mask><g transform="translate(1099.1547619047624 757.6071428571577) rotate(0 23.849990844726562 22.5)"><text x="0" y="0" font-family="Virgil, Segoe UI Emoji" font-size="36px" fill="#000000" text-anchor="start" style="white-space: pre;" direction="ltr" dominant-baseline="text-before-edge">ID</text></g><g transform="translate(1095.3047710600358 803.1071428571577) rotate(0 44.837982177734375 22.5)"><text x="0" y="0" font-family="Virgil, Segoe UI Emoji" font-size="36px" fill="#000000" text-anchor="start" style="white-space: pre;" direction="ltr" dominant-baseline="text-before-edge">Name</text></g><g transform="translate(1092.316779727028 855.1071428571577) rotate(0 44.207977294921875 22.5)"><text x="0" y="0" font-family="Virgil, Segoe UI Emoji" font-size="36px" fill="#000000" text-anchor="start" style="white-space: pre;" direction="ltr" dominant-baseline="text-before-edge">Email</text></g><g transform="translate(1092.9467846098405 911.1071428571577) rotate(0 36.7559814453125 22.5)"><text x="0" y="0" font-family="Virgil, Segoe UI Emoji" font-size="36px" fill="#000000" text-anchor="start" style="white-space: pre;" direction="ltr" dominant-baseline="text-before-edge">Role</text></g><g stroke-linecap="round" transform="translate(183.8690476190477 665.3928571428714) rotate(0 180 208)"><path d="M32 0 M32 0 C148.16 -0.36, 266.32 2.03, 328 0 M32 0 C109.03 1.47, 184.62 1.26, 328 0 M328 0 C349.26 -1.69, 361.15 9.61, 360 32 M328 0 C349.51 2.28, 359.32 9.26, 360 32 M360 32 C359.08 155.87, 357.16 277.85, 360 384 M360 32 C359.18 163.6, 359.85 296.12, 360 384 M360 384 C360.85 407.24, 347.98 416.48, 328 416 M360 384 C358.2 407.56, 349 414.06, 328 416 M328 416 C221.27 415.46, 115.56 415.89, 32 416 M328 416 C244.14 417.24, 161.12 416.89, 32 416 M32 416 C9.58 416.8, 1.38 405.04, 0 384 M32 416 C11.29 416.04, 0.92 406.06, 0 384 M0 384 C1.88 254.56, 2.35 125.33, 0 32 M0 384 C0.06 288.2, -0.27 191.75, 0 32 M0 32 C0.14 11.86, 10.7 -1.66, 32 0 M0 32 C0.53 11.71, 9.04 0.72, 32 0" stroke="#000000" stroke-width="2" fill="none"></path></g><g transform="translate(211.8690476190477 687.3928571428714) rotate(0 58.805992126464844 22.5)"><text x="0" y="0" font-family="Virgil, Segoe UI Emoji" font-size="36px" fill="#000000" text-anchor="start" style="white-space: pre;" direction="ltr" dominant-baseline="text-before-edge">Author</text></g><g stroke-linecap="round"><g transform="translate(211.8690476190477 727.3928571428714) rotate(0 59.0465257249773 0.5677925299733033)"><path d="M-0.92 -0.62 C18.98 -0.51, 99.33 -0.45, 119.02 -0.5 M0.79 1.67 C20.67 2.04, 98.79 1.06, 118.6 0.78" stroke="#000000" stroke-width="2" fill="none"></path></g></g><mask></mask><g transform="translate(221.8690476190477 747.3928571428714) rotate(0 23.849990844726562 22.5)"><text x="0" y="0" font-family="Virgil, Segoe UI Emoji" font-size="36px" fill="#000000" text-anchor="start" style="white-space: pre;" direction="ltr" dominant-baseline="text-before-edge">ID</text></g><g transform="translate(218.01905677432114 792.8928571428714) rotate(0 44.837982177734375 22.5)"><text x="0" y="0" font-family="Virgil, Segoe UI Emoji" font-size="36px" fill="#000000" text-anchor="start" style="white-space: pre;" direction="ltr" dominant-baseline="text-before-edge">Name</text></g><g transform="translate(215.03106544131333 844.8928571428714) rotate(0 44.207977294921875 22.5)"><text x="0" y="0" font-family="Virgil, Segoe UI Emoji" font-size="36px" fill="#000000" text-anchor="start" style="white-space: pre;" direction="ltr" dominant-baseline="text-before-edge">Email</text></g><g transform="translate(215.66107032412583 900.8928571428714) rotate(0 36.7559814453125 22.5)"><text x="0" y="0" font-family="Virgil, Segoe UI Emoji" font-size="36px" fill="#000000" text-anchor="start" style="white-space: pre;" direction="ltr" dominant-baseline="text-before-edge">Role</text></g><g transform="translate(215.8690476190477 1010.3928571428714) rotate(0 60.137969970703125 22.5)"><text x="0" y="0" font-family="Virgil, Segoe UI Emoji" font-size="36px" fill="#000000" text-anchor="start" style="white-space: pre;" direction="ltr" dominant-baseline="text-before-edge">Papers</text></g><g transform="translate(212.8570847284227 953.8928571428714) rotate(0 86.41795349121094 22.5)"><text x="0" y="0" font-family="Virgil, Segoe UI Emoji" font-size="36px" fill="#000000" text-anchor="start" style="white-space: pre;" direction="ltr" dominant-baseline="text-before-edge">Affiliation</text></g><g stroke-linecap="round" transform="translate(598.8928571428587 675.2023809523962) rotate(0 180 187.2619047619055)"><path d="M32 0 M32 0 C99.41 -2.31, 166 -1.29, 328 0 M32 0 C100.32 -1.38, 168.29 -0.73, 328 0 M328 0 C349.38 1.81, 361.78 10.51, 360 32 M328 0 C349.08 -0.99, 359.35 10.86, 360 32 M360 32 C359.72 104.81, 358.09 175.26, 360 342.52 M360 32 C359.28 115.37, 359.27 199.14, 360 342.52 M360 342.52 C359.84 364.16, 348.17 373.27, 328 374.52 M360 342.52 C362.23 365.96, 349.56 376.44, 328 374.52 M328 374.52 C244.18 373.7, 164.39 375.48, 32 374.52 M328 374.52 C211.02 372.99, 94.31 372.27, 32 374.52 M32 374.52 C11.17 375.96, -1.06 363.46, 0 342.52 M32 374.52 C8.79 375.86, 1.9 365.86, 0 342.52 M0 342.52 C-0.52 235.86, -0.15 128.18, 0 32 M0 342.52 C0.04 237.42, -0.21 133.44, 0 32 M0 32 C-1.18 9.49, 10.07 -1.69, 32 0 M0 32 C-1.95 12.9, 11.01 0.87, 32 0" stroke="#000000" stroke-width="2" fill="none"></path></g><g transform="translate(625.2261904761908 697.2023809523962) rotate(0 73.79995727539062 22.5)"><text x="0" y="0" font-family="Virgil, Segoe UI Emoji" font-size="36px" fill="#000000" text-anchor="start" style="white-space: pre;" direction="ltr" dominant-baseline="text-before-edge">Reviewer</text></g><g stroke-linecap="round"><g transform="translate(625.2261904761908 737.2023809523962) rotate(0 67.39103896990423 0.0421162448819814)"><path d="M-1.03 0.91 C21.51 0.64, 112.87 -0.78, 135.81 -0.83 M0.64 0.34 C22.95 0.14, 112.18 0.57, 134.76 0.28" stroke="#000000" stroke-width="2" fill="none"></path></g></g><mask></mask><g transform="translate(635.2261904761908 757.2023809523962) rotate(0 23.849990844726562 22.5)"><text x="0" y="0" font-family="Virgil, Segoe UI Emoji" font-size="36px" fill="#000000" text-anchor="start" style="white-space: pre;" direction="ltr" dominant-baseline="text-before-edge">ID</text></g><g transform="translate(631.3761996314643 802.7023809523962) rotate(0 44.837982177734375 22.5)"><text x="0" y="0" font-family="Virgil, Segoe UI Emoji" font-size="36px" fill="#000000" text-anchor="start" style="white-space: pre;" direction="ltr" dominant-baseline="text-before-edge">Name</text></g><g transform="translate(628.3882082984564 854.7023809523962) rotate(0 44.207977294921875 22.5)"><text x="0" y="0" font-family="Virgil, Segoe UI Emoji" font-size="36px" fill="#000000" text-anchor="start" style="white-space: pre;" direction="ltr" dominant-baseline="text-before-edge">Email</text></g><g transform="translate(629.018213181269 910.7023809523962) rotate(0 36.7559814453125 22.5)"><text x="0" y="0" font-family="Virgil, Segoe UI Emoji" font-size="36px" fill="#000000" text-anchor="start" style="white-space: pre;" direction="ltr" dominant-baseline="text-before-edge">Role</text></g><g transform="translate(626.3095238095266 969.8333333333394) rotate(0 50.363975524902344 22.5)"><text x="0" y="0" font-family="Virgil, Segoe UI Emoji" font-size="36px" fill="#000000" text-anchor="start" style="white-space: pre;" direction="ltr" dominant-baseline="text-before-edge">Paper</text></g><g stroke-linecap="round"><g transform="translate(785.9167345872561 505.66666666668425) rotate(0 -222.54506703938682 78.78201978660945)"><path d="M0.02 -0.93 C-73.87 25.08, -370.13 130.44, -444.44 156.86 M-1.43 1.2 C-75.33 27.36, -371.44 132.74, -445.11 158.49" stroke="#000000" stroke-width="2" fill="none"></path></g><g transform="translate(785.9167345872561 505.66666666668425) rotate(0 -222.54506703938682 78.78201978660945)"><path d="M-423.49 140.33 C-426.25 141.85, -429.8 145.42, -444.05 158.33 M-421.38 138.53 C-431.14 147.08, -437.57 153.86, -444.71 158.22" stroke="#000000" stroke-width="2" fill="none"></path></g><g transform="translate(785.9167345872561 505.66666666668425) rotate(0 -222.54506703938682 78.78201978660945)"><path d="M-416.66 159.68 C-420.95 157.23, -425.9 156.83, -444.05 158.33 M-414.54 157.88 C-426.9 159.39, -435.79 159.19, -444.71 158.22" stroke="#000000" stroke-width="2" fill="none"></path></g></g><mask></mask><g stroke-linecap="round" transform="translate(153.16666666666606 1323.404761904767) rotate(0 180 208.92857142857247)"><path d="M32 0 M32 0 C145.02 0.44, 259.99 1.33, 328 0 M32 0 C119.7 0.3, 208.37 -0.5, 328 0 M328 0 C349.62 1.49, 359.94 11.47, 360 32 M328 0 C351.41 -0.37, 359.88 12.67, 360 32 M360 32 C361.39 160.52, 362 286.96, 360 385.86 M360 32 C357.74 154.56, 357.54 275.57, 360 385.86 M360 385.86 C361.99 405.34, 349.7 419.36, 328 417.86 M360 385.86 C358.85 405.85, 348.25 417.76, 328 417.86 M328 417.86 C222.84 419.03, 116.73 419.28, 32 417.86 M328 417.86 C263.46 415.24, 197.86 415.32, 32 417.86 M32 417.86 C11.98 419.25, -0.67 406.29, 0 385.86 M32 417.86 C12.04 417.96, 1.59 407.37, 0 385.86 M0 385.86 C-2.49 278.75, -2.52 168.18, 0 32 M0 385.86 C1.02 300.57, 1.2 215.22, 0 32 M0 32 C0.63 9.16, 11.89 1.67, 32 0 M0 32 C-2.08 9.46, 12.31 -0.01, 32 0" stroke="#000000" stroke-width="2" fill="none"></path></g><g transform="translate(177.70004272460756 1339.8333333333376) rotate(0 50.363975524902344 22.5)"><text x="0" y="0" font-family="Virgil, Segoe UI Emoji" font-size="36px" fill="#000000" text-anchor="start" style="white-space: pre;" direction="ltr" dominant-baseline="text-before-edge">Paper</text></g><g stroke-linecap="round"><g transform="translate(176.4999999999991 1382.3333333333376) rotate(0 49.44751074338956 0.468791969798076)"><path d="M-0.28 -0.66 C16.16 -0.38, 82.57 1.04, 99.18 1.11 M1.77 1.6 C18.09 1.63, 82.44 -0.32, 98.67 -0.43" stroke="#000000" stroke-width="2" fill="none"></path></g></g><mask></mask><g transform="translate(181.49999999999818 1407.3333333333394) rotate(0 74.2139663696289 22.5)"><text x="0" y="0" font-family="Virgil, Segoe UI Emoji" font-size="36px" fill="#000000" text-anchor="start" style="white-space: pre;" direction="ltr" dominant-baseline="text-before-edge">PaperID</text></g><g transform="translate(181.49999999999818 1462.3333333333394) rotate(0 43.163978576660156 22.5)"><text x="0" y="0" font-family="Virgil, Segoe UI Emoji" font-size="36px" fill="#000000" text-anchor="start" style="white-space: pre;" direction="ltr" dominant-baseline="text-before-edge">Title</text></g><g transform="translate(181.49999999999818 1517.3333333333394) rotate(0 79.84797668457031 22.5)"><text x="0" y="0" font-family="Virgil, Segoe UI Emoji" font-size="36px" fill="#000000" text-anchor="start" style="white-space: pre;" direction="ltr" dominant-baseline="text-before-edge">Abstract</text></g><g transform="translate(181.49999999999818 1572.3333333333394) rotate(0 58.805992126464844 22.5)"><text x="0" y="0" font-family="Virgil, Segoe UI Emoji" font-size="36px" fill="#000000" text-anchor="start" style="white-space: pre;" direction="ltr" dominant-baseline="text-before-edge">Author</text></g><g transform="translate(181.49999999999818 1627.3333333333394) rotate(0 92.01595306396484 22.5)"><text x="0" y="0" font-family="Virgil, Segoe UI Emoji" font-size="36px" fill="#000000" text-anchor="start" style="white-space: pre;" direction="ltr" dominant-baseline="text-before-edge">presenters</text></g><g transform="translate(181.49999999999818 1680.6666666666733) rotate(0 69.3359603881836 22.5)"><text x="0" y="0" font-family="Virgil, Segoe UI Emoji" font-size="36px" fill="#000000" text-anchor="start" style="white-space: pre;" direction="ltr" dominant-baseline="text-before-edge">reviewer</text></g><g stroke-linecap="round" transform="translate(10 10) rotate(0 767.4999999999995 977.5)"><path d="M32 0 M32 0 C538.27 5.22, 1046.3 5.06, 1503 0 M32 0 C455.58 3.65, 879.32 4.03, 1503 0 M1503 0 C1523.66 0.22, 1534.83 9.99, 1535 32 M1503 0 C1524.97 1.09, 1536.11 12.08, 1535 32 M1535 32 C1539.29 653.99, 1540.42 1274.73, 1535 1923 M1535 32 C1532.51 667.54, 1532.66 1302.67, 1535 1923 M1535 1923 C1536.92 1943.82, 1522.8 1956.58, 1503 1955 M1535 1923 C1537.03 1943.9, 1526.41 1956.02, 1503 1955 M1503 1955 C1044.13 1957.94, 586.03 1959.22, 32 1955 M1503 1955 C1000.6 1955.12, 497.85 1955.04, 32 1955 M32 1955 C9.92 1955.96, 0.03 1944.42, 0 1923 M32 1955 C11.94 1952.85, -1.32 1943.96, 0 1923 M0 1923 C3.32 1267.95, 3.72 613.95, 0 32 M0 1923 C-6.07 1306.92, -6.25 690.11, 0 32 M0 32 C-1.95 10.06, 12.09 -0.38, 32 0 M0 32 C0.31 9.12, 12.06 0.6, 32 0" stroke="#000000" stroke-width="2" fill="none"></path></g><g stroke-linecap="round" transform="translate(859.432234432234 1341.047619047613) rotate(0 184.30769230769238 192.92857142857247)"><path d="M32 0 M32 0 C139.98 0.29, 249.81 -0.86, 336.62 0 M32 0 C136.76 -0.76, 242.5 -1.54, 336.62 0 M336.62 0 C358.62 1.63, 368.91 11.82, 368.62 32 M336.62 0 C355.77 -1.39, 367.93 8.85, 368.62 32 M368.62 32 C369.77 118.14, 369.71 205.99, 368.62 353.86 M368.62 32 C366.42 129.07, 366.62 225.83, 368.62 353.86 M368.62 353.86 C369.57 373.68, 357.64 385.06, 336.62 385.86 M368.62 353.86 C366.62 374.64, 359.23 385.71, 336.62 385.86 M336.62 385.86 C272.09 385.59, 209.55 387.06, 32 385.86 M336.62 385.86 C261.63 384.1, 186.79 383.43, 32 385.86 M32 385.86 C10.46 386.93, -1.61 376.72, 0 353.86 M32 385.86 C11.06 385.61, 1.26 373.95, 0 353.86 M0 353.86 C0.65 238.02, -0.08 121.81, 0 32 M0 353.86 C-1.17 285.51, -1.03 218.13, 0 32 M0 32 C-0.05 12.46, 11.59 0.98, 32 0 M0 32 C1.46 10.87, 9.91 -0.82, 32 0" stroke="#000000" stroke-width="2" fill="none"></path></g><g transform="translate(884.5527340197691 1357.8693528693457) rotate(0 64.15479278564453 23.03846153846189)"><text x="0" y="0" font-family="Virgil, Segoe UI Emoji" font-size="36.86153846153846px" fill="#000000" text-anchor="start" style="white-space: pre;" direction="ltr" dominant-baseline="text-before-edge">Session</text></g><g stroke-linecap="round"><g transform="translate(883.3239723239717 1401.3864468864413) rotate(0 64.96633804144744 -0.4178966060808307)"><path d="M1.05 -0.21 C22.59 0.03, 108.52 0.42, 129.8 0.54 M0.14 -1.36 C21.49 -1.41, 107.08 -1.27, 128.9 -1.3" stroke="#000000" stroke-width="2" fill="none"></path></g></g><mask></mask><g transform="translate(888.4436304436299 1426.9847374847322) rotate(0 96.59158325195312 23.03846153846189)"><text x="0" y="0" font-family="Virgil, Segoe UI Emoji" font-size="36.86153846153846px" fill="#000000" text-anchor="start" style="white-space: pre;" direction="ltr" dominant-baseline="text-before-edge">session ID</text></g><g transform="translate(888.4436304436299 1483.3009768009724) rotate(0 39.79035186767578 23.03846153846189)"><text x="0" y="0" font-family="Virgil, Segoe UI Emoji" font-size="36.86153846153846px" fill="#000000" text-anchor="start" style="white-space: pre;" direction="ltr" dominant-baseline="text-before-edge">title</text></g><g transform="translate(888.9583486759625 1542.177045177039) rotate(0 36.196502685546875 23.03846153846189)"><text x="0" y="0" font-family="Virgil, Segoe UI Emoji" font-size="36.86153846153846px" fill="#000000" text-anchor="start" style="white-space: pre;" direction="ltr" dominant-baseline="text-before-edge">time</text></g><g transform="translate(890.8137091537669 1599.5172161172122) rotate(0 69.86808776855469 23.03846153846189)"><text x="0" y="0" font-family="Virgil, Segoe UI Emoji" font-size="36.86153846153846px" fill="#000000" text-anchor="start" style="white-space: pre;" direction="ltr" dominant-baseline="text-before-edge">location</text></g><g transform="translate(892.6960505037264 1652.3584045583812) rotate(0 51.56712341308594 23.03846153846189)"><text x="0" y="0" font-family="Virgil, Segoe UI Emoji" font-size="36.86153846153846px" fill="#000000" text-anchor="start" style="white-space: pre;" direction="ltr" dominant-baseline="text-before-edge">Paper</text></g><g stroke-linecap="round" transform="translate(53.04761904762563 40.91666666664878) rotate(0 107.44827586206907 38)"><path d="M20.57 0.04 L194.39 1.2 L205.25 0.68 L213.68 8.06 L212.98 15.34 L215.12 58.12 L214.24 63.82 L208.87 73.42 L196.66 77.95 L18.89 75.68 L9.33 73.88 L3.69 69.94 L0.36 62 L-1.62 15.2 L5.97 4.47 L11.87 2.92 L19.61 0.62" stroke="none" stroke-width="0" fill="#be4bdb"></path><path d="M19 0 M19 0 C77.59 1.03, 133.7 0.56, 195.9 0 M195.9 0 C209.79 1.41, 214.91 6.41, 214.9 19 M214.9 19 C214.92 27.79, 215.82 36.8, 214.9 57 M214.9 57 C215.93 70.23, 210.53 75.39, 195.9 76 M195.9 76 C143.25 74.81, 86.5 76.88, 19 76 M19 76 C7.42 77.04, 1.53 71.19, 0 57 M0 57 C1.03 43.43, 0.03 31.13, 0 19 M0 19 C-0.79 5.84, 5.39 1.6, 19 0" stroke="#ffff" stroke-width="4.5" fill="none" stroke-dasharray="1.5 10"></path></g><g transform="translate(105.48976850588588 61.267094147213356) rotate(0 55.006126403808594 17.649572519435424)"><text x="55.006126403808594" y="0" font-family="Virgil, Segoe UI Emoji" font-size="28.23931603109666px" fill="#ffff" text-anchor="middle" style="white-space: pre;" direction="ltr" dominant-baseline="text-before-edge">Diagram</text></g><g stroke-linecap="round"><g transform="translate(347.07094773941935 1083.969839088326) rotate(0 -0.04911538725218634 119.10738465975919)"><path d="M-1.07 -1 C-1.18 39.04, -1.37 199.15, -1.04 239.21 M0.57 1.09 C0.85 40.85, 1.12 197.94, 1.13 237.32" stroke="#000000" stroke-width="2" fill="none"></path></g><g transform="translate(347.07094773941935 1083.969839088326) rotate(0 -0.04911538725218634 119.10738465975919)"><path d="M-10.83 207.41 C-5.91 218.32, -2.86 225.38, -0.25 237.5 M-10.03 208.75 C-7.77 216.42, -3.93 221.62, 0.22 236.74" stroke="#000000" stroke-width="2" fill="none"></path></g><g transform="translate(347.07094773941935 1083.969839088326) rotate(0 -0.04911538725218634 119.10738465975919)"><path d="M9.69 207.38 C9.08 218.12, 6.59 225.19, -0.25 237.5 M10.5 208.73 C7.88 216.39, 6.85 221.58, 0.22 236.74" stroke="#000000" stroke-width="2" fill="none"></path></g></g><mask></mask><g stroke-linecap="round"><g transform="translate(785.1456152781411 506.6365057549883) rotate(0 -0.7125214516020151 83.39440865724782)"><path d="M0.29 0.26 C-0.06 27.82, -1.57 138.28, -1.88 166.16 M-1.02 -0.64 C-1.01 27, 0.69 139.72, 0.43 167.43" stroke="#000000" stroke-width="2" fill="none"></path></g><g transform="translate(785.1456152781411 506.6365057549883) rotate(0 -0.7125214516020151 83.39440865724782)"><path d="M-9.52 138.02 C-7.29 147.46, -1.68 157.81, -0.8 168.82 M-9.52 138.92 C-6.05 150.21, -2.06 161.54, 0.64 168.38" stroke="#000000" stroke-width="2" fill="none"></path></g><g transform="translate(785.1456152781411 506.6365057549883) rotate(0 -0.7125214516020151 83.39440865724782)"><path d="M11 137.93 C6.68 147.45, 5.75 157.82, -0.8 168.82 M11 138.83 C6.54 150.34, 2.59 161.72, 0.64 168.38" stroke="#000000" stroke-width="2" fill="none"></path></g></g><mask></mask><g stroke-linecap="round"><g transform="translate(787.405068818307 503.45268831292105) rotate(0 230.50615962327402 85.11383602985052)"><path d="M-0.29 -0.24 C76.16 28.55, 382.37 143.07, 459.18 171.63 M1.76 -1.41 C78.52 27.13, 384.94 140.87, 461.3 169.87" stroke="#000000" stroke-width="2" fill="none"></path></g><g transform="translate(787.405068818307 503.45268831292105) rotate(0 230.50615962327402 85.11383602985052)"><path d="M430.91 167.71 C442.7 170.16, 452.15 168.91, 463.18 170.94 M431.46 168.64 C441.6 170.8, 452.86 170.73, 460.34 169.85" stroke="#000000" stroke-width="2" fill="none"></path></g><g transform="translate(787.405068818307 503.45268831292105) rotate(0 230.50615962327402 85.11383602985052)"><path d="M438.11 148.49 C447.26 157.49, 454.25 162.82, 463.18 170.94 M438.66 149.42 C446.07 158.56, 454.7 165.51, 460.34 169.85" stroke="#000000" stroke-width="2" fill="none"></path></g></g><mask></mask><g stroke-linecap="round"><g transform="translate(780.2622116754492 1054.8812597414926) rotate(0 -214.58479662089758 133.2637139396129)"><path d="M1.05 -0.61 C-70.44 43.76, -357.78 222.73, -429.42 267.13 M0.15 1.69 C-71.43 45.61, -358.69 221.09, -430.22 265.26" stroke="#000000" stroke-width="2" fill="none"></path></g><g transform="translate(780.2622116754492 1054.8812597414926) rotate(0 -214.58479662089758 133.2637139396129)"><path d="M-412.57 242.23 C-415.44 249.57, -422.5 254.23, -429.01 266.63 M-410.79 242.53 C-415.08 247.41, -420.7 251.98, -430.72 265.61" stroke="#000000" stroke-width="2" fill="none"></path></g><g transform="translate(780.2622116754492 1054.8812597414926) rotate(0 -214.58479662089758 133.2637139396129)"><path d="M-401.84 259.72 C-407.63 262.62, -417.48 262.74, -429.01 266.63 M-400.05 260.02 C-406.79 260.86, -414.87 261.44, -430.72 265.61" stroke="#000000" stroke-width="2" fill="none"></path></g></g><mask></mask><g stroke-linecap="round"><g transform="translate(513.920201130466 1525.964335411507) rotate(0 171.88769046454968 0.48669662506654277)"><path d="M0.02 0.94 C57.42 1.09, 287.77 -0.11, 345.2 -0.22 M-1.42 0.39 C55.83 0.82, 287.24 0.97, 344.82 1.2" stroke="#000000" stroke-width="2" fill="none"></path></g><g transform="translate(513.920201130466 1525.964335411507) rotate(0 171.88769046454968 0.48669662506654277)"><path d="M318.18 13.2 C326.77 8.4, 338.04 5, 345.07 -0.34 M317.14 10.68 C322.65 8.26, 330.82 5.56, 344.47 1.62" stroke="#000000" stroke-width="2" fill="none"></path></g><g transform="translate(513.920201130466 1525.964335411507) rotate(0 171.88769046454968 0.48669662506654277)"><path d="M318.22 -7.32 C326.6 -4.53, 337.86 -0.34, 345.07 -0.34 M317.19 -9.84 C322.58 -7.28, 330.74 -5.01, 344.47 1.62" stroke="#000000" stroke-width="2" fill="none"></path></g></g><mask></mask><g stroke-linecap="round"><g transform="translate(1240.1143807116846 989.5270670117643) rotate(0 -100.11723651641978 174.74661004991412)"><path d="M0.59 -0.23 C-32.91 58.24, -167.48 292.53, -200.82 350.9 M-0.56 -1.4 C-33.68 56.73, -165.23 290.47, -198.45 349.24" stroke="#000000" stroke-width="2" fill="none"></path></g><g transform="translate(1240.1143807116846 989.5270670117643) rotate(0 -100.11723651641978 174.74661004991412)"><path d="M-193.93 318.56 C-193.57 330.12, -196.69 340.21, -196.55 349.3 M-193.57 319.69 C-194.21 326.73, -195.6 335.23, -199.42 348.35" stroke="#000000" stroke-width="2" fill="none"></path></g><g transform="translate(1240.1143807116846 989.5270670117643) rotate(0 -100.11723651641978 174.74661004991412)"><path d="M-176.06 328.64 C-181.32 337.12, -190.06 344.04, -196.55 349.3 M-175.69 329.77 C-180.73 334.38, -186.62 340.34, -199.42 348.35" stroke="#000000" stroke-width="2" fill="none"></path></g></g><mask></mask></svg>